PathFileType	4	(X/Y/Z)	pose2sim_150-449.trc
DataRate	CameraRate	NumFrames	NumMarkers	Units	OrigDataRate	OrigDataStartFrame	OrigNumFrames
50	50	8	22	m	50	300	300
Frame#	Time	Hip			RHip			RKnee			RAnkle			RBigToe			RSmallToe			RHeel			LHip			LKnee			LAnkle			LBigToe			LSmallToe			LHeel			Neck			Head			Nose			RShoulder			RElbow			RWrist			LShoulder			LElbow			LWrist			
		X1	Y1	Z1	X2	Y2	Z2	X3	Y3	Z3	X4	Y4	Z4	X5	Y5	Z5	X6	Y6	Z6	X7	Y7	Z7	X8	Y8	Z8	X9	Y9	Z9	X10	Y10	Z10	X11	Y11	Z11	X12	Y12	Z12	X13	Y13	Z13	X14	Y14	Z14	X15	Y15	Z15	X16	Y16	Z16	X17	Y17	Z17	X18	Y18	Z18	X19	Y19	Z19	X20	Y20	Z20	X21	Y21	Z21	X22	Y22	Z22	
300	6.0	0.1338411595320551	0.9795095588636608	-0.04534262102131416	0.029476200953256936	0.9702391904254188	-0.03955138440940374	0.0114172546785688	0.5228858651992199	-0.07376371253735418	0.0033826148053382465	0.09354304581531349	-0.08318886350069671	0.008813971149656067	0.043322313650169746	0.07552742947727978	-0.04298815067750071	0.04626055457776928	0.03618417088931261	0.009476353596083826	0.05293748225221992	-0.12481369826513868	0.2361479640372441	0.9669949902261762	-0.05800579473062393	0.2433599893569701	0.5235244483319834	-0.10777398411376554	0.24635870993732292	0.09698445378142838	-0.11446750655653042	0.28035467738524067	0.04301812761272075	0.06652390370110095	0.32287316045340486	0.04528359416269873	0.01236882937689538	0.23505496124287908	0.05134179430011972	-0.148301776429193	0.146769018646885	1.5810183605162633	-0.06074089941284201	0.151657475354303	1.8257263808258257	-0.029710337914392544	0.15240809447129045	1.6957534049502108	0.0837366994034869	-0.019180806708014166	1.4925469882951785	-0.053922722516792795	-0.06991404054199643	1.2788330754999602	0.0974333007998795	-0.05340330099687381	1.473002845076227	0.08901893431435542	0.30609112511302855	1.4859467601238137	-0.08132777276627774	0.3668668540267191	1.2687262212876407	0.07326694753743011	0.3352355376965866	1.454143940975744	0.10445961825388532
301	6.02	0.13497305200515264	0.9787206603270776	-0.04802475061913227	0.031036567217002597	0.9693826154794836	-0.035350713726247165	0.013480565954360061	0.5226539338671545	-0.07266215745576736	0.0006261088198979564	0.09102823797226182	-0.08476544328587829	0.007525391950632871	0.04252643502475515	0.07677069368619725	-0.0429467846175754	0.04387842606229123	0.034613000557473426	0.009446013900629728	0.04876026382258435	-0.11971707981498174	0.23882202685163265	0.9664774894697237	-0.05957907552274455	0.24433653135616518	0.5234218728805263	-0.11271137321601106	0.24503862101327145	0.09457068324312506	-0.11375040398668324	0.28085918094627416	0.04368114872172307	0.06910839759890455	0.3232468279879093	0.045929932335321555	0.014890471113978669	0.23642743108871725	0.05006372882924032	-0.15414369026543798	0.14514502325528508	1.5796031323488526	-0.06392189190755346	0.15006332173528938	1.8242184622542326	-0.03272299433734058	0.15232801158688553	1.6941349638184946	0.08358019594872003	-0.0177844979783737	1.4924621609483681	-0.05646971731843699	-0.06947280354816891	1.2676145241703765	0.09121504788097771	-0.05718379061551065	1.471365900527666	0.08039979465782995	0.30578996039484574	1.4873495814783178	-0.08115255657717084	0.3671188672072228	1.2778030283315958	0.08133289174539096	0.3329906213647618	1.458478529996792	0.11096883184197374
302	6.04	0.1370089127200188	0.9837643853391329	-0.043727185095471965	0.03284569936925062	0.9742469968090347	-0.027108800734348255	0.012380509427496607	0.5230751277564325	-0.07019135328927535	-0.0004843059093706661	0.090770289731841	-0.08784875096821478	0.0020069970333418748	0.0391477819566877	0.11444339341629477	-0.0451370788234555	0.04104715960338616	0.0621266388998193	0.009610460332112528	0.04284391918644391	-0.1319209868783652	0.2370380917385774	0.9710631382964882	-0.05573468957028543	0.24011050221106836	0.5217103519140656	-0.10986924872219807	0.24574256847198145	0.08881024982038624	-0.10665626136395388	0.2806812919115749	0.03830475937996887	0.06527147311657885	0.31244720471061566	0.03837314291287773	0.015341897269784686	0.23521968936999865	0.04398525749675796	-0.1401650453418864	0.14856850688249912	1.5810760013110692	-0.0704953588447912	0.15205895166448213	1.824577954096832	-0.021134040996941498	0.15417300867906458	1.6973008767649584	0.07068984195841825	-0.011925726512936021	1.4922231650135789	-0.0697796403382801	-0.06395330887507901	1.2665200405649288	0.09283679380128206	-0.049754138365884396	1.5037489295585105	0.08041275616654639	0.3082674716376183	1.4858375187945472	-0.0866658128064441	0.36949658282227876	1.2777234210858912	0.0840914790126788	0.33447716965024316	1.4611704227365043	0.09904905140180756
303	6.06	0.1334891202299848	0.975978924258168	-0.04487955788401483	0.030520625106443825	0.9668505009018051	-0.035260929989858955	0.011355001326093545	0.5221474049858765	-0.07134021582708334	0.0013440517134468261	0.09361982518019979	-0.08603378350852568	0.002636113391224978	0.04112392944001671	0.08474809699591158	-0.048566779858182016	0.043464643922454915	0.038865130382220996	0.010856693617057543	0.05105681816884586	-0.1174700352836215	0.23883250534109488	0.962356720386474	-0.059923263585144125	0.24317868985469696	0.5229224711763154	-0.11091612906600562	0.2462404327715466	0.0928706754728304	-0.11300769363691213	0.28626273904438615	0.038683095054435554	0.06363879999686371	0.32572496825873376	0.042833801491997905	0.008819664026449452	0.23357422372386377	0.04874900452774716	-0.14828238569452973	0.1472760475603765	1.5778509114853663	-0.06724365583462467	0.15234080256093355	1.8242863536308032	-0.029506346424565583	0.15431336289741618	1.692083810671707	0.08670924991462296	-0.016077952753844563	1.4917919233778858	-0.060389840161481426	-0.06900013637126057	1.2790616878011534	0.10971540548638378	-0.05406446338889545	1.4799070412553257	0.07312453345479811	0.3056293048045416	1.4828892561057323	-0.0832982069462291	0.3620614534477161	1.2799545485136472	0.08145876980918215	0.33271523803036046	1.4600080304386152	0.11743792504805244
304	6.08	0.13471868143593066	0.9793966769622369	-0.04390504570579146	0.03219231899095981	0.9711220456015665	-0.033629312737887204	0.011369360221640748	0.5229277532323967	-0.07094329066229355	0.0017126882542600073	0.09384303830700617	-0.07992964761542244	0.0100093849124845	0.04073778663383682	0.07514633064230693	-0.043464862737613595	0.04365325005721495	0.03446653031137633	0.008974306913900448	0.05198527301923695	-0.12543592536167675	0.23823518320144416	0.9654450073064095	-0.060984190091489886	0.24431918807334851	0.5222112916916126	-0.10821410066860378	0.2457992763098874	0.09431651347913925	-0.1095088632093734	0.28053165040166417	0.04358958707255683	0.07220549729033486	0.32115862671321355	0.046002105778618956	0.016112855690405905	0.235925635978338	0.048308696998535836	-0.14894835765164663	0.14901702654701562	1.5793732998216485	-0.06378809510453913	0.15134705113047242	1.8237248769840249	-0.026213544102344378	0.1518783667258379	1.69083521249488	0.08300182409695339	-0.013780152518493094	1.4934070675845612	-0.05548087015824226	-0.06859324299914009	1.2816369536433099	0.10515084177407302	-0.05384755774262856	1.4879367985556615	0.08003790595499788	0.3066466096995251	1.4830427537741842	-0.08886929612417732	0.3635707211520653	1.278719702208868	0.07772258745402273	0.33333968200962893	1.4594353030227212	0.11520168612226857
305	6.1	0.1333773432608798	0.977379200151907	-0.043530586681161824	0.03068729802271099	0.9682415229785984	-0.034112144502506034	0.012922890796912473	0.52182581560712	-0.07095527518097716	0.004772536596576353	0.09293773957725407	-0.08127252711025484	0.007069987966277009	0.03867619744234253	0.07920894023700172	-0.043618382860958725	0.039859742573925036	0.03225947612062316	0.010776836075238092	0.05068858271571769	-0.12095756282914744	0.2380687345192156	0.9641052281696162	-0.06519211460393994	0.24416766386040575	0.5223997354052796	-0.10544011652369198	0.24564353125224467	0.09498416376068028	-0.11328316948776847	0.2783110674808195	0.04105681123688511	0.06586731341357599	0.31793338651480724	0.04343162945942823	0.011908677701150767	0.2350317661276518	0.04915525323111524	-0.14805513570319714	0.14876022132633887	1.577340824436935	-0.06706582990353453	0.15108907672158778	1.8234411575221583	-0.029023490819466195	0.15459673049181588	1.6918362794498691	0.0855956217915711	-0.014059508181155509	1.4928495203814736	-0.059641293907579454	-0.06665813239784188	1.2854001951031133	0.11737887391059963	-0.04961424583144062	1.4872723208812355	0.07792416854312759	0.3064954687223009	1.4840721915342467	-0.0905833746953048	0.36757695564062076	1.28167477023337	0.09601590629628777	0.33070079593006285	1.4604419474440928	0.12567652250876218
306	6.12	0.13712413202880985	0.9859534350775804	-0.03939843212858262	0.03407128573750146	0.9761867069020704	-0.02593384046316188	0.012314839484789373	0.5230873149329499	-0.07198333753176553	-0.00041296721569465596	0.09030181927717953	-0.08702136136307276	0.0014812587683976186	0.03868721478509608	0.10996434300358404	-0.04708440976129177	0.03951706740638598	0.05790380959883115	0.0066455426327328105	0.042454343085310424	-0.1283841105848278	0.23680861606643316	0.9741158211511285	-0.05063936283530037	0.24205282280090534	0.5218036164296119	-0.1091133152260907	0.2437747294260483	0.08975206888114631	-0.10985160857153103	0.28124841967276876	0.03820397048326268	0.0646886095812712	0.3128304907145039	0.03945075379539967	0.012304836720666868	0.23157591292471666	0.04528828199065423	-0.14561331665379554	0.1490666624201914	1.57779727564051	-0.07414140275343625	0.1515344585987642	1.819832275022379	-0.02113456278628141	0.15649110275696812	1.6903235739105953	0.07544478186348191	-0.010028443514086896	1.4913060943658325	-0.07683418832347991	-0.0606407089537897	1.2878883593660013	0.10552434659947688	-0.042921110637780695	1.5145233317479245	0.08261843122696662	0.30868410681204267	1.4870685168719622	-0.09453567472912867	0.3732110030117965	1.284424957259914	0.08791709991995243	0.3377321468386235	1.4613358661781672	0.11456037915132072
307	6.14	0.1336770339810856	0.9770090277660654	-0.04478189411959635	0.029401713913925567	0.9685817244799619	-0.03603684989690584	0.011545705195145035	0.5219221083099238	-0.06654143661983676	3.704956612746062e-06	0.0931142210917885	-0.08519261631759122	0.0077956005018525775	0.03907465786855052	0.08614415805004086	-0.043611568090384245	0.04157738488080006	0.0371984169408966	0.00922116659816482	0.05059005431718544	-0.11979333234458284	0.2371188099885098	0.9638446214779551	-0.058547091458500455	0.24146052663827802	0.5211772849426587	-0.10500772815004394	0.24417215189990712	0.09228793965292728	-0.11186772159728356	0.2818656586687409	0.03690073335553589	0.06024172855925685	0.32249751887317646	0.039323114182412126	0.011542898947268763	0.23465617223118324	0.048193557483411816	-0.1471046797340285	0.14818063252934793	1.57894539997181	-0.0738156425290867	0.1552009413201834	1.8206390415691847	-0.0319019434015338	0.15558112482963649	1.6914126757259504	0.07030407404379604	-0.014640096866925687	1.4917715986906508	-0.06670354316928341	-0.06680629953666654	1.2908558349355908	0.11659251333205324	-0.04997851578553907	1.4921668205163112	0.08249557540020823	0.30423611928438143	1.4857057413406427	-0.09921850047815149	0.3650315937991934	1.2860645865680358	0.07090561661336006	0.3357813424649305	1.4703385895270966	0.10571022007283581
